<?xml version="1.0" encoding="UTF-8"?>
<svg xmlns="http://www.w3.org/2000/svg" xmlns:xlink="http://www.w3.org/1999/xlink" viewBox="0 0 100 100" version="1.1">
<g id="surface23133070">
<path style=" stroke:none;fill-rule:nonzero;fill:rgb(18.039216%,80%,44.313725%);fill-opacity:1;" d="M 50 15 C 30.671875 15 15 30.671875 15 50 C 15 69.328125 30.671875 85 50 85 C 69.328125 85 85 69.328125 85 50 C 85 30.671875 69.328125 15 50 15 Z M 50 15 "/>
<path style=" stroke:none;fill-rule:nonzero;fill:rgb(100%,100%,100%);fill-opacity:1;" d="M 64 47.5 L 52.5 47.5 L 52.5 35 C 52.5 33.617188 51.382812 32.5 50 32.5 C 48.617188 32.5 47.5 33.617188 47.5 35 L 47.5 47.5 L 36 47.5 C 34.617188 47.5 33.5 48.617188 33.5 50 C 33.5 51.382812 34.617188 52.5 36 52.5 L 47.5 52.5 L 47.5 65 C 47.5 66.382812 48.617188 67.5 50 67.5 C 51.382812 67.5 52.5 66.382812 52.5 65 L 52.5 52.5 L 64 52.5 C 65.382812 52.5 66.5 51.382812 66.5 50 C 66.5 48.617188 65.382812 47.5 64 47.5 Z M 64 47.5 "/>
<path style=" stroke:none;fill-rule:nonzero;fill:rgb(12.156863%,12.941176%,16.862745%);fill-opacity:1;" d="M 50 14 C 30.148438 14 14 30.148438 14 50 C 14 69.851562 30.148438 86 50 86 C 69.851562 86 86 69.851562 86 50 C 86 30.148438 69.851562 14 50 14 Z M 50 84 C 31.253906 84 16 68.746094 16 50 C 16 31.253906 31.253906 16 50 16 C 68.746094 16 84 31.253906 84 50 C 84 68.746094 68.746094 84 50 84 Z M 50 84 "/>
<path style=" stroke:none;fill-rule:nonzero;fill:rgb(12.156863%,12.941176%,16.862745%);fill-opacity:1;" d="M 63.277344 23.089844 C 63.941406 23.417969 64.605469 23.777344 65.246094 24.15625 C 65.324219 24.203125 65.410156 24.226562 65.5 24.226562 C 65.671875 24.226562 65.835938 24.136719 65.929688 23.980469 C 66.070312 23.742188 65.992188 23.4375 65.753906 23.296875 C 65.089844 22.902344 64.40625 22.53125 63.722656 22.191406 C 63.472656 22.070312 63.175781 22.171875 63.050781 22.421875 C 62.929688 22.667969 63.03125 22.96875 63.277344 23.089844 Z M 68.195312 26.144531 C 68.285156 26.214844 68.394531 26.25 68.5 26.25 C 68.648438 26.25 68.796875 26.183594 68.894531 26.054688 C 69.0625 25.835938 69.023438 25.519531 68.804688 25.351562 C 68.46875 25.097656 68.128906 24.847656 67.785156 24.605469 C 67.558594 24.449219 67.246094 24.503906 67.089844 24.730469 C 66.929688 24.957031 66.984375 25.269531 67.210938 25.425781 C 67.546875 25.660156 67.875 25.898438 68.195312 26.144531 Z M 68.195312 26.144531 "/>
<path style=" stroke:none;fill-rule:nonzero;fill:rgb(12.156863%,12.941176%,16.862745%);fill-opacity:1;" d="M 70.835938 27.046875 C 70.632812 26.863281 70.316406 26.878906 70.128906 27.082031 C 69.945312 27.285156 69.960938 27.601562 70.164062 27.785156 C 76.414062 33.464844 80 41.5625 80 50 C 80 66.542969 66.542969 80 50 80 C 33.457031 80 20 66.542969 20 50 C 20 33.457031 33.457031 20 50 20 C 53.550781 20 57.023438 20.613281 60.328125 21.824219 C 60.585938 21.921875 60.875 21.785156 60.96875 21.527344 C 61.0625 21.269531 60.929688 20.980469 60.671875 20.886719 C 57.257812 19.636719 53.667969 19 50 19 C 32.90625 19 19 32.90625 19 50 C 19 67.09375 32.90625 81 50 81 C 67.09375 81 81 67.09375 81 50 C 81 41.277344 77.296875 32.914062 70.835938 27.046875 Z M 70.835938 27.046875 "/>
<path style=" stroke:none;fill-rule:nonzero;fill:rgb(12.156863%,12.941176%,16.862745%);fill-opacity:1;" d="M 53 47 L 53 35 C 53 33.347656 51.652344 32 50 32 C 48.347656 32 47 33.347656 47 35 L 47 47 L 36 47 C 34.347656 47 33 48.347656 33 50 C 33 51.652344 34.347656 53 36 53 L 47 53 L 47 65 C 47 66.652344 48.347656 68 50 68 C 51.652344 68 53 66.652344 53 65 L 53 53 L 64 53 C 65.652344 53 67 51.652344 67 50 C 67 48.347656 65.652344 47 64 47 Z M 66 50 C 66 51.101562 65.101562 52 64 52 L 52.5 52 C 52.222656 52 52 52.222656 52 52.5 L 52 65 C 52 66.101562 51.101562 67 50 67 C 48.898438 67 48 66.101562 48 65 L 48 52.5 C 48 52.222656 47.777344 52 47.5 52 L 36 52 C 34.898438 52 34 51.101562 34 50 C 34 48.898438 34.898438 48 36 48 L 47.5 48 C 47.777344 48 48 47.777344 48 47.5 L 48 35 C 48 33.898438 48.898438 33 50 33 C 51.101562 33 52 33.898438 52 35 L 52 47.5 C 52 47.777344 52.222656 48 52.5 48 L 64 48 C 65.101562 48 66 48.898438 66 50 Z M 66 50 "/>
</g>
</svg>
