<?xml version="1.0" encoding="utf-8"?>
  <svg viewBox="0 0 81 83" version="1.1" xmlns:xlink="http://www.w3.org/1999/xlink" xmlns="http://www.w3.org/2000/svg">
    <desc>Created with Lunacy</desc>
    <g id="svg-4" opacity="1">
      <path d="M9.999 0L69.0545 0L74.5283 0Q74.6626 0 74.7968 0.00659094Q74.9309 0.0131819 75.0646 0.0263479Q75.1983 0.0395139 75.3311 0.0592232Q75.464 0.0789326 75.5957 0.105138Q75.7275 0.131343 75.8578 0.163981Q75.9881 0.196619 76.1166 0.235611Q76.2452 0.274603 76.3716 0.319855Q76.4981 0.365107 76.6222 0.416511Q76.7463 0.467914 76.8677 0.525345Q76.9892 0.582775 77.1076 0.646095Q77.2261 0.709415 77.3413 0.778471Q77.4565 0.847527 77.5682 0.922153Q77.6799 0.996779 77.7878 1.0768Q77.8957 1.15681 77.9995 1.24203Q78.1033 1.32724 78.2029 1.41745Q78.3024 1.50765 78.3974 1.60263Q78.4923 1.69761 78.5825 1.79714Q78.6727 1.89667 78.758 2.0005Q78.8432 2.10434 78.9232 2.21222Q79.0032 2.32011 79.0778 2.4318Q79.1525 2.54349 79.2215 2.6587Q79.2906 2.77391 79.3539 2.89238Q79.4172 3.01084 79.4746 3.13226Q79.5321 3.25369 79.5835 3.37779Q79.6349 3.50189 79.6801 3.62836Q79.7254 3.75483 79.7644 3.88337Q79.8034 4.01191 79.836 4.14221Q79.8686 4.27251 79.8949 4.40425Q79.9211 4.53599 79.9408 4.66886Q79.9605 4.80173 79.9736 4.93541Q79.9868 5.06909 79.9934 5.20325Q80 5.33741 80 5.47173L80 70.001Q80 70.2465 79.988 70.4916Q79.9759 70.7368 79.9519 70.9811Q79.9278 71.2253 79.8918 71.4681Q79.8558 71.711 79.8079 71.9517Q79.76 72.1924 79.7003 72.4305Q79.6407 72.6686 79.5694 72.9035Q79.4982 73.1384 79.4155 73.3696Q79.3328 73.6007 79.2389 73.8274Q79.1449 74.0542 79.04 74.2761Q78.935 74.498 78.8193 74.7145Q78.7036 74.931 78.5774 75.1415Q78.4512 75.352 78.3149 75.5561Q78.1785 75.7602 78.0323 75.9574Q77.886 76.1545 77.7303 76.3443Q77.5746 76.534 77.4098 76.7159Q77.2449 76.8978 77.0714 77.0714Q76.8978 77.2449 76.7159 77.4098Q76.534 77.5746 76.3443 77.7303Q76.1545 77.886 75.9574 78.0323Q75.7602 78.1785 75.5561 78.3149Q75.352 78.4512 75.1415 78.5774Q74.931 78.7036 74.7145 78.8193Q74.498 78.935 74.2761 79.04Q74.0542 79.1449 73.8274 79.2389Q73.6007 79.3328 73.3696 79.4155Q73.1384 79.4982 72.9035 79.5694Q72.6687 79.6407 72.4305 79.7003Q72.1925 79.76 71.9517 79.8079Q71.711 79.8558 71.4681 79.8918Q71.2253 79.9278 70.9811 79.9519Q70.7368 79.9759 70.4916 79.988Q70.2465 80 70.001 80L9.999 80Q9.75354 80 9.50837 79.988Q9.26321 79.9759 9.01893 79.9519Q8.77465 79.9278 8.53184 79.8918Q8.28904 79.8558 8.04829 79.8079Q7.80755 79.76 7.56944 79.7003Q7.33134 79.6407 7.09644 79.5694Q6.86155 79.4982 6.63044 79.4155Q6.39932 79.3328 6.17255 79.2389Q5.94577 79.1449 5.72388 79.04Q5.50198 78.935 5.2855 78.8193Q5.06903 78.7036 4.85849 78.5774Q4.64795 78.4512 4.44385 78.3149Q4.23976 78.1785 4.0426 78.0323Q3.84545 77.886 3.6557 77.7303Q3.46596 77.5746 3.28408 77.4098Q3.10221 77.2449 2.92864 77.0714Q2.75507 76.8978 2.59023 76.7159Q2.42539 76.534 2.26967 76.3443Q2.11395 76.1545 1.96773 75.9574Q1.82151 75.7602 1.68514 75.5561Q1.54876 75.352 1.42257 75.1415Q1.29638 74.931 1.18067 74.7145Q1.06496 74.498 0.960011 74.2761Q0.855062 74.0542 0.761128 73.8274Q0.667194 73.6007 0.584501 73.3696Q0.501807 73.1384 0.430553 72.9035Q0.3593 72.6687 0.299657 72.4305Q0.240015 72.1925 0.192128 71.9517Q0.144241 71.711 0.108224 71.4681Q0.0722074 71.2253 0.0481479 70.9811Q0.0240885 70.7368 0.0120442 70.4916Q0 70.2465 0 70.001L0 9.999Q0 9.75354 0.0120442 9.50837Q0.0240885 9.26321 0.0481479 9.01893Q0.0722074 8.77465 0.108224 8.53184Q0.144241 8.28904 0.192128 8.04829Q0.240015 7.80755 0.299657 7.56944Q0.3593 7.33134 0.430553 7.09644Q0.501807 6.86155 0.584501 6.63044Q0.667194 6.39932 0.761128 6.17255Q0.855062 5.94577 0.960011 5.72388Q1.06496 5.50198 1.18067 5.2855Q1.29638 5.06903 1.42257 4.85849Q1.54876 4.64795 1.68514 4.44385Q1.82151 4.23976 1.96773 4.0426Q2.11395 3.84545 2.26967 3.6557Q2.42539 3.46596 2.59023 3.28408Q2.75507 3.10221 2.92864 2.92864Q3.10221 2.75507 3.28408 2.59023Q3.46596 2.42539 3.6557 2.26967Q3.84545 2.11395 4.0426 1.96773Q4.23976 1.82151 4.44385 1.68514Q4.64795 1.54876 4.85849 1.42257Q5.06903 1.29638 5.2855 1.18067Q5.50198 1.06496 5.72388 0.960011Q5.94577 0.855062 6.17255 0.761128Q6.39932 0.667194 6.63044 0.584501Q6.86155 0.501807 7.09644 0.430553Q7.33134 0.3593 7.56944 0.299657Q7.80755 0.240015 8.04829 0.192128Q8.28904 0.144241 8.53184 0.108224Q8.77465 0.0722074 9.01893 0.0481479Q9.26321 0.0240885 9.50837 0.0120442Q9.75354 0 9.999 0Z" id="Background" fill="none" stroke="none" />
      <path d="M0 0L77 0L77 79L0 79L0 0Z" transform="translate(1.999878 3)" id="Rectangle" fill="#C2CDE7" stroke="none" />
      <path d="M28 0C12.536 0 0 12.536 0 28C0 43.464 12.536 56 28 56C43.464 56 56 43.464 56 28C56 12.536 43.464 0 28 0L28 0Z" transform="translate(12 12)" id="Shape" fill="#95A5A6" stroke="none" />
      <path d="M0 28.8C0 44.6808 12.9192 57.6 28.8 57.6C44.6808 57.6 57.6 44.6808 57.6 28.8C57.6 12.9192 44.6808 0 28.8 0C12.9192 0 0 12.9192 0 28.8ZM1.59998 28.8C1.59998 13.8016 13.8016 1.6 28.8 1.6C43.7984 1.6 56 13.8016 56 28.8C56 43.7984 43.7984 56 28.8 56C13.8016 56 1.59998 43.7984 1.59998 28.8Z" transform="translate(11.19995 11.20001)" id="Shape" fill="#1F212B" fill-rule="evenodd" stroke="none" />
      <path d="M1.19994 17.5928C1.16554 17.5928 1.12954 17.588 1.09434 17.5784C0.88154 17.5208 0.75594 17.3 0.813541 17.0872C3.55434 7.0264 12.7591 0 23.1999 0C29.2463 0 34.9703 2.3128 39.3167 6.5128C39.4751 6.6656 39.4799 6.9192 39.3263 7.0784C39.1743 7.2368 38.9207 7.2416 38.7607 7.088C34.5639 3.0328 29.0375 0.8 23.1999 0.8C13.1191 0.8 4.23114 7.584 1.58554 17.2984C1.53754 17.476 1.37674 17.5928 1.19994 17.5928ZM40.8808 9.4464C40.96 9.5472 41.0784 9.6 41.1968 9.6C41.2832 9.6 41.3696 9.5728 41.4424 9.5168C41.6168 9.3808 41.648 9.1304 41.512 8.9552C41.2968 8.6784 41.0744 8.4072 40.8472 8.1416C40.704 7.9728 40.4512 7.9528 40.284 8.0968C40.116 8.24 40.0952 8.492 40.2392 8.66C40.4592 8.9176 40.6728 9.1792 40.8808 9.4464ZM43.2848 12.8C43.1424 12.8 43.0048 12.724 42.9328 12.5896C42.6416 12.0488 42.3272 11.52 42.0008 11.0176C41.8808 10.8328 41.9328 10.5848 42.1176 10.4648C42.3008 10.3456 42.5504 10.396 42.6704 10.5816C43.0096 11.1016 43.3336 11.6496 43.6368 12.2096C43.7416 12.404 43.6688 12.6464 43.4744 12.752C43.4152 12.784 43.3504 12.8 43.2848 12.8ZM0 23.2C0 35.992 10.408 46.4 23.2 46.4C35.992 46.4 46.4 35.992 46.4 23.2C46.4 19.944 45.7384 16.7936 44.4336 13.8384C44.3448 13.636 44.1072 13.544 43.9064 13.6344C43.7048 13.7232 43.6128 13.9592 43.7024 14.1616C44.9616 17.0152 45.6 20.0552 45.6 23.2C45.6 35.5512 35.5512 45.6 23.2 45.6C10.8488 45.6 0.8 35.5512 0.8 23.2C0.8 22.2808 0.856 21.3544 0.967999 20.448C0.995198 20.2288 0.838399 20.0288 0.619199 20.0024C0.4056 19.9736 0.2008 20.132 0.173599 20.3512C0.0584 21.2896 0 22.248 0 23.2Z" transform="translate(16.80005 16.79999)" id="Shape" fill="#1F212B" fill-rule="evenodd" stroke="none" />
      <path d="M5.7037 0L71.2963 0C74.4464 0 77 3.58172 77 8L77 8C77 9.10457 76.3616 10 75.5741 10L1.42593 10C0.638409 10 0 9.10457 0 8L0 8C0 3.58172 2.55364 0 5.7037 0L5.7037 0Z" transform="translate(2.000122 72.99998)" id="Shape" fill="#ACB7D0" stroke="none" />
      <path d="M4.28571 0L75.7143 0C78.0812 0 80 2.14387 80 4.78846L80 78.2115C80 80.8561 78.0812 83 75.7143 83L4.28571 83C1.91878 83 0 80.8561 0 78.2115L0 4.78846C0 2.14387 1.91878 0 4.28571 0ZM75.7142 79.8077C76.5032 79.8077 77.1428 79.0931 77.1428 78.2115L77.1428 4.78846C77.1428 3.90693 76.5032 3.19231 75.7142 3.19231L4.28563 3.19231C3.49665 3.19231 2.85706 3.90693 2.85706 4.78846L2.85706 78.2115C2.85706 79.0931 3.49665 79.8077 4.28563 79.8077L75.7142 79.8077Z" transform="translate(-0.0001220703 0)" id="Shape" fill="#000000" fill-rule="evenodd" stroke="none" />
      <path d="M1.85185 0C0.829103 0 0 0.783503 0 1.75L0 5.25C0 6.2165 0.829103 7 1.85185 7C2.8746 7 3.7037 6.2165 3.7037 5.25L3.7037 1.75C3.7037 0.783503 2.8746 0 1.85185 0ZM9.25928 1.75C9.25928 0.783503 10.0884 0 11.1111 0C12.1339 0 12.963 0.783503 12.963 1.75L12.963 5.25C12.963 6.2165 12.1339 7 11.1111 7C10.0884 7 9.25928 6.2165 9.25928 5.25L9.25928 1.75ZM20.3704 0C19.3477 0 18.5186 0.783503 18.5186 1.75L18.5186 5.25C18.5186 6.2165 19.3477 7 20.3704 7C21.3932 7 22.2223 6.2165 22.2223 5.25L22.2223 1.75C22.2223 0.783503 21.3932 0 20.3704 0ZM27.7778 1.75C27.7778 0.783503 28.6069 0 29.6297 0C30.6524 0 31.4815 0.783503 31.4815 1.75L31.4815 5.25C31.4815 6.2165 30.6524 7 29.6297 7C28.6069 7 27.7778 6.2165 27.7778 5.25L27.7778 1.75ZM38.8888 0C37.8661 0 37.037 0.783503 37.037 1.75L37.037 5.25C37.037 6.2165 37.8661 7 38.8888 7C39.9116 7 40.7407 6.2165 40.7407 5.25L40.7407 1.75C40.7407 0.783503 39.9116 0 38.8888 0ZM46.2963 1.75C46.2963 0.783503 47.1254 0 48.1481 0C49.1709 0 50 0.783503 50 1.75L50 5.25C50 6.2165 49.1709 7 48.1481 7C47.1254 7 46.2963 6.2165 46.2963 5.25L46.2963 1.75Z" transform="translate(16.00012 71)" id="Shape" fill="#000000" fill-rule="evenodd" stroke="none" />
    </g>
 </svg>
