<?xml version="1.0" encoding="utf-8"?>
<svg viewBox="0 0 128 128" version="1.1" xmlns:xlink="http://www.w3.org/1999/xlink" xmlns="http://www.w3.org/2000/svg">
  <desc>Created with Lunacy</desc>
  <g id="svg-31">
    <path d="M0 0L128 0L128 128L0 128L0 0Z" transform="translate(3.051758E-05 0)" id="Background" fill="none" stroke="none" />
    <path d="M2.85 0C1.27599 0 0 1.2536 0 2.8C0 4.3464 1.27599 5.6 2.85 5.6C4.42401 5.6 5.7 4.3464 5.7 2.8C5.7 1.2536 4.42401 0 2.85 0L2.85 0Z" transform="translate(61.14996 79.7334)" id="Shape" fill="#928F8F" stroke="none" />
    <path d="M34.2 7.46667L1.9 7.46667C0.85025 7.46667 0 6.63133 0 5.6L0 1.86667C0 0.835334 0.85025 0 1.9 0L34.2 0C35.2497 0 36.1 0.835334 36.1 1.86667L36.1 5.6C36.1 6.63133 35.2497 7.46667 34.2 7.46667L34.2 7.46667Z" transform="translate(45.94998 92.80005)" id="Shape" fill="#E0678F" stroke="none" />
    <path d="M14.25 0C18.183 0 21.7455 1.568 24.32 4.10667C26.904 6.636 28.5 10.136 28.5 14L28.5 29.8667L0 29.8667L0 14C0 6.272 6.384 0 14.25 0ZM11.4 19.6C11.4 21.1494 12.673 22.4 14.25 22.4C15.827 22.4 17.1 21.1494 17.1 19.6C17.1 18.0507 15.827 16.8 14.25 16.8C12.673 16.8 11.4 18.0507 11.4 19.6Z" transform="translate(49.75 62.93335)" id="Shape" fill="#ED7899" fill-rule="evenodd" stroke="none" />
    <path d="M23.066 5.852L27.265 3.63067C28.063 5.376 28.5 7.29867 28.5 9.33333L28.5 25.2L0 25.2L0 9.33333C0 9.24 0 9.156 0.00950203 9.06267C0.0380009 7.13067 0.475002 5.292 1.235 3.63067L5.434 5.852C6.84 2.42667 10.2695 0 14.25 0C16.7865 0 19.171 0.970667 20.957 2.73467C21.888 3.64 22.6005 4.704 23.066 5.852ZM11.4 14.9333C11.4 16.4826 12.673 17.7333 14.25 17.7333C15.827 17.7333 17.1 16.4826 17.1 14.9333C17.1 13.384 15.827 12.1333 14.25 12.1333C12.673 12.1333 11.4 13.384 11.4 14.9333Z" transform="translate(49.75 67.6001)" id="Shape" fill="#ED7899" fill-rule="evenodd" stroke="none" />
    <path d="M23.1973 9.36413L22.9959 9.47053C21.967 10.0147 20.7073 9.6852 20.0452 8.7388C19.7127 8.26467 19.3317 7.81573 18.9052 7.40133C17.1201 5.63733 14.7356 4.66667 12.1991 4.66667C8.96343 4.66667 6.09253 6.27013 4.37588 8.70893C3.70328 9.6656 2.44073 10.0203 1.39858 9.46867L1.20003 9.3632C0.033431 8.74627 -0.365569 7.26787 0.374482 6.18893C2.93473 2.45467 7.28003 0 12.1991 0C16.1321 0 19.6946 1.568 22.2691 4.10667C22.9208 4.74693 23.5098 5.44693 24.0266 6.19827C24.7657 7.27347 24.3601 8.74907 23.1973 9.36413L23.1973 9.36413Z" transform="translate(51.80093 62.93335)" id="Shape" fill="#F283A5" stroke="none" />
    <path d="M0 14.9333C0 15.9647 0.85025 16.8 1.9 16.8C2.94975 16.8 3.8 15.9647 3.8 14.9333L3.8 0L0 0L0 14.9333ZM17.1 14.9333C17.1 15.9647 17.9503 16.8 19 16.8C20.0498 16.8 20.9 15.9647 20.9 14.9333L20.9 0L17.1 0L17.1 14.9333Z" transform="translate(53.54999 100.2666)" id="Shape" fill="#928F8F" fill-rule="evenodd" stroke="none" />
    <path d="M3.8 0L0 0L0 4.66667L3.8 4.66667L3.8 0ZM20.9 0L17.1 0L17.1 4.66667L20.9 4.66667L20.9 0Z" transform="translate(53.54999 100.2666)" id="Shape" fill="#A39C9C" fill-rule="evenodd" stroke="none" />
    <path d="M34.2 29.8667L35.15 29.8667C36.7213 29.8667 38 31.1229 38 32.6667L38 36.4C38 37.9437 36.7213 39.2 35.15 39.2L30.4 39.2L30.4 53.2C30.4 54.7437 29.1213 56 27.55 56C25.9787 56 24.7 54.7437 24.7 53.2L24.7 39.2L13.3 39.2L13.3 53.2C13.3 54.7437 12.0213 56 10.45 56C8.8787 56 7.6 54.7437 7.6 53.2L7.6 39.2L2.85 39.2C1.2787 39.2 0 37.9437 0 36.4L0 32.6667C0 31.1229 1.2787 29.8667 2.85 29.8667L3.8 29.8667L3.8 14.9333C3.8 6.69947 10.6191 0 19 0C27.3809 0 34.2 6.69947 34.2 14.9333L34.2 29.8667ZM5.69998 22.4C6.22438 22.4 6.64998 21.9828 6.64998 21.4667L6.64998 19.6C6.64998 19.0839 6.22438 18.6667 5.69998 18.6667L5.69998 14.9334C5.69998 7.72803 11.666 1.8667 19 1.8667C26.334 1.8667 32.3 7.72803 32.3 14.9334L32.3 18.6667C31.7756 18.6667 31.35 19.0839 31.35 19.6L31.35 21.4667C31.35 21.9828 31.7756 22.4 32.3 22.4L32.3 29.8667L5.69998 29.8667L5.69998 22.4ZM35.15 37.3334C35.6734 37.3334 36.1 36.9153 36.1 36.4001L36.1 32.6667C36.1 32.1515 35.6734 31.7334 35.15 31.7334L2.84999 31.7334C2.32654 31.7334 1.89999 32.1515 1.89999 32.6667L1.89999 36.4001C1.89999 36.9153 2.32654 37.3334 2.84999 37.3334L35.15 37.3334ZM10.45 54.1333C10.9735 54.1333 11.4 53.7151 11.4 53.2L11.4 39.2L9.5 39.2L9.5 53.2C9.5 53.7151 9.92655 54.1333 10.45 54.1333ZM28.5 53.2C28.5 53.7151 28.0734 54.1333 27.55 54.1333C27.0265 54.1333 26.6 53.7151 26.6 53.2L26.6 39.2L28.5 39.2L28.5 53.2Z" transform="translate(45 62)" id="Shape" fill="#000000" fill-rule="evenodd" stroke="none" />
    <path d="M8.68674 0.00351187C9.22729 -0.041288 9.66714 0.347912 9.70704 0.863112C9.7479 1.37645 9.3565 1.82538 8.83209 1.86551C6.84659 2.01485 4.96465 2.85111 3.53395 4.22125C3.3487 4.39765 3.10929 4.48631 2.87085 4.48631C2.62385 4.48631 2.37684 4.39205 2.19065 4.20445C1.8249 3.83578 1.83249 3.24405 2.20869 2.88471C3.95764 1.20938 6.25855 0.186445 8.68674 0.00351187ZM12.6074 0.433695C12.1049 0.283429 11.5738 0.555029 11.418 1.0469C11.2613 1.53876 11.5406 2.06236 12.0422 2.21636C12.8364 2.45996 13.5897 2.81556 14.2804 3.27383C14.4428 3.38116 14.6281 3.43343 14.8114 3.43343C15.1164 3.43343 15.4166 3.2897 15.5999 3.02276C15.8935 2.5953 15.7785 2.0157 15.3444 1.72636C14.4989 1.16636 13.5783 0.731429 12.6074 0.433695ZM9.49998 12.106C7.40428 12.106 5.69998 13.7804 5.69998 15.8393C5.69998 17.8982 7.40428 19.5726 9.49998 19.5726C11.5957 19.5726 13.3 17.8982 13.3 15.8393C13.3 13.7804 11.5957 12.106 9.49998 12.106ZM0 14.906C0 14.3899 0.4256 13.9727 0.95 13.9727C1.4744 13.9727 1.9 14.3899 1.9 14.906L1.9 16.7727C1.9 17.2888 1.4744 17.706 0.95 17.706C0.4256 17.706 0 17.2888 0 16.7727L0 14.906ZM7.59998 15.8393C7.59998 16.8688 8.45212 17.706 9.49998 17.706C10.5478 17.706 11.4 16.8688 11.4 15.8393C11.4 14.8099 10.5478 13.9727 9.49998 13.9727C8.45212 13.9727 7.59998 14.8099 7.59998 15.8393ZM18.05 13.9727C17.5256 13.9727 17.1 14.3899 17.1 14.906L17.1 16.7727C17.1 17.2888 17.5256 17.706 18.05 17.706C18.5744 17.706 19 17.2888 19 16.7727L19 14.906C19 14.3899 18.5744 13.9727 18.05 13.9727Z" transform="translate(54.5 66.69409)" id="Shape" fill="#000000" fill-rule="evenodd" stroke="none" />
  </g>
</svg>