<?xml version="1.0" encoding="utf-8"?>
<svg viewBox="0 0 124 183" version="1.1" xmlns:xlink="http://www.w3.org/1999/xlink" xmlns="http://www.w3.org/2000/svg">
  <desc>Created with Lunacy</desc>
  <g id="svg">
    <path d="M0 0L123 0L123 183L0 183L0 0Z" transform="translate(-3.051758E-05 0)" id="Background" fill="none" stroke="none" />
    <path d="M101.563 6.25L101.563 156.25C101.563 159.688 100.088 162.5 98.2863 162.5L3.27621 162.5C1.47429 162.5 0 159.688 0 156.25L0 6.25C0 2.8125 1.47429 0 3.27621 0L98.2863 0C100.088 0 101.563 2.8125 101.563 6.25L101.563 6.25Z" transform="translate(12 10.875)" id="Shape" fill="#BECDE8" stroke="none" />
    <path d="M0 0L75 0L75 118.75L0 118.75L0 0Z" transform="translate(24.5 23.375)" id="Shape" fill="#8B8E98" stroke="none" />
    <path d="M98.4375 9.375C98.4375 12.8125 97.0086 15.625 95.2621 15.625L3.1754 15.625C1.42893 15.625 0 12.8125 0 9.375C0 4.1875 2.12752 0 4.76311 0L93.6744 0C96.31 0 98.4375 4.1875 98.4375 9.375L98.4375 9.375Z" transform="translate(12 157.75)" id="Shape" fill="#A8B7D1" stroke="none" />
    <path d="M0 97.6688L40.4446 0L46.7365 0L0 112.859L0 97.6688ZM3.85266 118.75L16.4352 118.75L64.9628 1.5625L52.3828 1.5625L3.85266 118.75ZM70.3125 118.75L70.3125 10.875L25.6531 118.75L70.3125 118.75Z" transform="translate(26.58423 23.375)" id="Shape" fill="#91949B" fill-rule="evenodd" stroke="none" />
    <path d="M4.90723 0L99.7803 0C102.486 0 104.688 4.20625 104.688 9.375L104.688 159.375C104.688 164.544 102.486 168.75 99.7803 168.75L4.90723 168.75C2.20171 168.75 0 164.544 0 159.375L0 9.375C0 4.20625 2.20171 0 4.90723 0ZM99.7803 162.5C100.683 162.5 101.416 161.1 101.416 159.375L101.416 9.375C101.416 7.65 100.683 6.25 99.7803 6.25L4.90723 6.25C4.0043 6.25 3.27148 7.65 3.27148 9.375L3.27148 159.375C3.27148 161.1 4.0043 162.5 4.90723 162.5L99.7803 162.5Z" transform="translate(8.875 7.75)" id="Shape" fill="#000000" fill-rule="evenodd" stroke="none" />
    <path d="M73.6607 125L1.33929 125C0.598661 125 0 123.603 0 121.875L0 3.125C0 1.39687 0.598661 0 1.33929 0L73.6607 0C74.4013 0 75 1.39688 75 3.125L75 121.875C75 123.603 74.4013 125 73.6607 125ZM72.3215 6.25L2.67868 6.25L2.67868 118.75L72.3215 118.75L72.3215 6.25Z" transform="translate(24.5 20.25)" id="Shape" fill="#000000" fill-rule="evenodd" stroke="none" />
    <path d="M14.5002 0L36.2502 0C38.2548 0 39.8752 1.4767 39.8752 3.30357C39.8752 5.13045 38.2548 6.60714 36.2502 6.60714L14.5002 6.60714C12.4956 6.60714 10.8752 5.13045 10.8752 3.30357C10.8752 1.4767 12.4956 0 14.5002 0ZM47.1249 6.60712C45.1203 6.60712 43.4999 8.08382 43.4999 9.91069L43.4999 36.3393C43.4999 38.1661 45.1203 39.6428 47.1249 39.6428C49.1296 39.6428 50.7499 38.1661 50.7499 36.3393L50.7499 9.91069C50.7499 8.08382 49.1296 6.60712 47.1249 6.60712ZM3.625 6.60718C1.62037 6.60718 0 8.08388 0 9.91075L0 36.3393C0 38.1662 1.62037 39.6429 3.625 39.6429C5.62962 39.6429 7.24999 38.1662 7.24999 36.3393L7.24999 9.91075C7.24999 8.08388 5.62962 6.60718 3.625 6.60718ZM36.2504 39.6428L14.5004 39.6428C12.4958 39.6428 10.8754 41.1195 10.8754 42.9464C10.8754 44.7733 12.4958 46.25 14.5004 46.25L36.2504 46.25C38.255 46.25 39.8754 44.7733 39.8754 42.9464C39.8754 41.1195 38.255 39.6428 36.2504 39.6428ZM0.000213623 49.5536C0.000213623 47.7268 1.62059 46.2501 3.62521 46.2501C5.62983 46.2501 7.25021 47.7268 7.25021 49.5536L7.25021 82.5893C7.25021 84.4162 5.62983 85.8929 3.62521 85.8929C1.62059 85.8929 0.000213623 84.4162 0.000213623 82.5893L0.000213623 49.5536ZM43.5004 49.5536C43.5004 47.7268 45.1207 46.2501 47.1254 46.2501C49.13 46.2501 50.7504 47.7268 50.7504 49.5536L50.7504 82.5894C50.7504 84.4162 49.13 85.8929 47.1254 85.8929C45.1207 85.8929 43.5004 84.4162 43.5004 82.5894L43.5004 49.5536ZM14.5004 85.8929L36.2504 85.8929C38.255 85.8929 39.8754 87.3696 39.8754 89.1965C39.8754 91.0233 38.255 92.5 36.2504 92.5L14.5004 92.5C12.4958 92.5 10.8754 91.0233 10.8754 89.1965C10.8754 87.3696 12.4958 85.8929 14.5004 85.8929Z" transform="translate(36.24966 37.00006)" id="Shape" fill="#FFFFFF" fill-rule="evenodd" stroke="none" />
    <path d="M2.1412 0C0.957118 0 0 1.04765 0 2.34375L0 7.03125C0 8.32735 0.957118 9.375 2.1412 9.375C3.32529 9.375 4.28241 8.32735 4.28241 7.03125L4.28241 2.34375C4.28241 1.04765 3.32529 0 2.1412 0ZM10.7059 2.34375C10.7059 1.04765 11.6631 0 12.8471 0C14.0312 0 14.9883 1.04765 14.9883 2.34375L14.9883 7.03125C14.9883 8.32735 14.0312 9.375 12.8471 9.375C11.663 9.375 10.7059 8.32735 10.7059 7.03125L10.7059 2.34375ZM23.5531 0C22.369 0 21.4119 1.04765 21.4119 2.34375L21.4119 7.03125C21.4119 8.32735 22.369 9.375 23.5531 9.375C24.7372 9.375 25.6943 8.32735 25.6943 7.03125L25.6943 2.34375C25.6943 1.04765 24.7372 0 23.5531 0ZM32.1182 2.34375C32.1182 1.04765 33.0753 0 34.2594 0C35.4435 0 36.4006 1.04765 36.4006 2.34375L36.4006 7.03125C36.4006 8.32735 35.4435 9.375 34.2594 9.375C33.0753 9.375 32.1182 8.32735 32.1182 7.03125L32.1182 2.34375ZM44.9654 0C43.7813 0 42.8242 1.04765 42.8242 2.34375L42.8242 7.03125C42.8242 8.32735 43.7813 9.375 44.9654 9.375C46.1494 9.375 47.1066 8.32735 47.1066 7.03125L47.1066 2.34375C47.1066 1.04765 46.1494 0 44.9654 0ZM53.5301 2.34375C53.5301 1.04765 54.4872 0 55.6713 0C56.8554 0 57.8125 1.04765 57.8125 2.34375L57.8125 7.03125C57.8125 8.32735 56.8554 9.375 55.6713 9.375C54.4872 9.375 53.5301 8.32735 53.5301 7.03125L53.5301 2.34375Z" transform="translate(33.875 157.7499)" id="Shape" fill="#000000" fill-rule="evenodd" stroke="none" />
  </g>
</svg>