<?xml version="1.0" encoding="utf-8"?>
  <svg  width="100%" hright="100%" viewBox="0 0 128 128" version="1.1" xmlns:xlink="http://www.w3.org/1999/xlink" xmlns="http://www.w3.org/2000/svg" preserveAspectRatio="xMinYMin meet" className="svg-content">
    <desc>Created with Lunacy</desc>
    <g id="svg-11">
      <path d="M0 0L128 0L128 128L0 128L0 0Z" id="Background" fill="none" stroke="none" />
      <path d="M0 0L108 0L108 100L0 100L0 0Z" transform="translate(10 14)" id="Rectangle" fill="#C2CDE7" stroke="none" />
      <path d="M8 0L100 0C104.418 0 108 3.58172 108 8L108 8C108 9.10457 107.105 10 106 10L2 10C0.895431 10 0 9.10457 0 8L0 8C0 3.58172 3.58172 0 8 0L8 0Z" transform="translate(10 104)" id="Shape" fill="#ACB7D0" stroke="none" />
      <path d="M0 0L44 0L44 60L0 60L0 0Z" transform="translate(42 30)" id="Shape" fill="#95A5A6" stroke="none" />
      <path d="M0 0L28 0L28 20L0 20L0 0Z" transform="translate(50 62)" id="Shape" fill="#000000" stroke="none" />
      <path d="M0 2C0 0.895432 0.895432 0 2 0C3.10457 0 4 0.895432 4 2L4 6C4 7.10457 3.10457 8 2 8C0.895432 8 0 7.10457 0 6L0 2ZM10 2C10 0.895432 10.8954 0 12 0C13.1046 0 14 0.895432 14 2L14 6C14 7.10457 13.1046 8 12 8C10.8954 8 10 7.10457 10 6L10 2ZM22 0C20.8954 0 20 0.895432 20 2L20 6C20 7.10457 20.8954 8 22 8C23.1046 8 24 7.10457 24 6L24 2C24 0.895432 23.1046 0 22 0ZM30 2C30 0.895432 30.8954 0 32 0C33.1046 0 34 0.895432 34 2L34 6C34 7.10457 33.1046 8 32 8C30.8954 8 30 7.10457 30 6L30 2ZM42 0C40.8954 0 40 0.895432 40 2L40 6C40 7.10457 40.8954 8 42 8C43.1046 8 44 7.10457 44 6L44 2C44 0.895432 43.1046 0 42 0ZM50 2C50 0.895432 50.8954 0 52 0C53.1046 0 54 0.895432 54 2L54 6C54 7.10457 53.1046 8 52 8C50.8954 8 50 7.10457 50 6L50 2ZM62 0C60.8954 0 60 0.895432 60 2L60 6C60 7.10457 60.8954 8 62 8C63.1046 8 64 7.10457 64 6L64 2C64 0.895432 63.1046 0 62 0Z" transform="translate(32 100)" id="Shape" fill="#000000" fill-rule="evenodd" stroke="none" />
      <path d="M6 0L106 0C109.314 0 112 2.68629 112 6L112 98C112 101.314 109.314 104 106 104L6 104C2.68629 104 0 101.314 0 98L0 6C0 2.68629 2.68629 0 6 0ZM106 100C107.105 100 108 99.1046 108 98L108 6C108 4.89543 107.105 4 106 4L6 4C4.89543 4 4 4.89543 4 6L4 98C4 99.1046 4.89543 100 6 100L106 100Z" transform="translate(8 12)" id="Shape" fill="#000000" fill-rule="evenodd" stroke="none" />
      <path d="M4 0L44 0C46.2091 0 48 1.79086 48 4L48 60C48 62.2091 46.2091 64 44 64L4 64C1.79086 64 0 62.2091 0 60L0 4C0 1.79086 1.79086 0 4 0ZM4 4L4 60L44 60L44 4L4 4Z" transform="translate(40 28)" id="Shape" fill="#000000" fill-rule="evenodd" stroke="none" />
      <path d="M2 0L30 0C31.1046 0 32 0.895432 32 2L32 46C32 47.1046 31.1046 48 30 48L2 48C0.895432 48 0 47.1046 0 46L0 2C0 0.895432 0.895432 0 2 0ZM28 4L28 24L4 24L4 4L28 4ZM4 44L28 44L28 28L4 28L4 44Z" transform="translate(48 36)" id="Shape" fill="#000000" fill-rule="evenodd" stroke="none" />
      <path d="M6 0C2.68629 0 0 2.68629 0 6C0 9.31371 2.68629 12 6 12C9.31371 12 12 9.31371 12 6C12 2.68629 9.31371 0 6 0L6 0Z" transform="translate(58 44.08002)" id="Shape" fill="#95A5A6" stroke="none" />
      <path d="M4 0C1.79086 0 0 1.79086 0 4C0 6.20914 1.79086 8 4 8C6.20914 8 8 6.20914 8 4C8 1.79086 6.20914 0 4 0ZM88 4C88 1.79086 89.7909 0 92 0C94.2091 0 96 1.79086 96 4C96 6.20914 94.2091 8 92 8C89.7909 8 88 6.20914 88 4ZM4 80C1.79086 80 0 81.7909 0 84C0 86.2091 1.79086 88 4 88C6.20914 88 8 86.2091 8 84C8 81.7909 6.20914 80 4 80ZM88 84C88 81.7909 89.7909 80 92 80C94.2091 80 96 81.7909 96 84C96 86.2091 94.2091 88 92 88C89.7909 88 88 86.2091 88 84Z" transform="translate(16 20)" id="Shape" fill="#000000" fill-rule="evenodd" stroke="none" />
    </g>
  </svg>
